<svg xmlns="http://www.w3.org/2000/svg" version="1.1" viewBox="0 0 110.0 135.0">
 <path d="m95.008 38.371c0.55078 0 1-0.44922 1-1v-13.91c0-0.55078-0.44922-1-1-1h-25.961l-1.9648-7.1133c-0.14844-0.53125-0.69922-0.84375-1.2305-0.69922-0.53125 0.14844-0.84375 0.69922-0.69922 1.2305l1.8164 6.582h-37.535c-0.55078 0-1 0.44922-1 1v13.91c0 0.55078 0.44922 1 1 1 2.7344 0 4.9609 3.1172 4.9609 6.9492 0 3.832-2.2266 6.9492-4.9609 6.9492-0.55078 0-1 0.44922-1 1v1.875l-11.727 3.4219-3.0742-10.531c1.5742-0.68359 2.8711-1.8633 3.7109-3.3945 1-1.8242 1.2305-3.9336 0.64844-5.9336-1.1094-3.8008-4.875-6.1172-8.6875-5.5195l-3.0742-10.535 56.262-16.41 0.93359 3.3867c0.14844 0.53125 0.69531 0.84375 1.2305 0.69922 0.53125-0.14844 0.84375-0.69922 0.69922-1.2305l-1.2031-4.3633c-0.070313-0.25781-0.24219-0.47656-0.47656-0.60547s-0.51172-0.16016-0.76562-0.085937l-58.199 16.973c-0.25391 0.074219-0.46875 0.24609-0.59766 0.48047-0.12891 0.23438-0.15625 0.50781-0.082031 0.76172l3.6133 12.391c0.15234 0.53125 0.71484 0.83594 1.2383 0.67969 3.0664-0.89453 6.293 0.875 7.1875 3.9414 0.43359 1.4844 0.26172 3.0508-0.48047 4.4102-0.74219 1.3555-1.9727 2.3438-3.4609 2.7773-0.25391 0.074219-0.46875 0.24609-0.59766 0.48047s-0.15625 0.50781-0.082031 0.76172l3.6133 12.391c0.12891 0.4375 0.52734 0.71875 0.96094 0.71875 0.09375 0 0.1875-0.011719 0.28125-0.039063l12.129-3.5352v9.9492c0 0.55078 0.44922 1 1 1h9.9375c0.55078 0 1-0.44922 1-1 0-0.55078-0.44922-1-1-1h-8.9375v-12.008c3.3672-0.625 5.9609-4.3594 5.9609-8.8555 0-4.4961-2.5938-8.2305-5.9609-8.8555v-12.004h63.578v12.004c-3.3672 0.625-5.9609 4.3594-5.9609 8.8555 0 4.4961 2.5938 8.2305 5.9609 8.8555v12.004h-6.9531c-0.55078 0-1 0.44922-1 1 0 0.55078 0.44922 1 1 1h7.9492c0.55078 0 1-0.44922 1-1v-13.91c0-0.55078-0.44922-1-1-1-2.7344 0-4.9609-3.1172-4.9609-6.9492 0-3.832 2.2266-6.9492 4.9609-6.9492z"/>
 <path d="m66.199 70.914v-25.594c0-0.33203-0.16406-0.64062-0.4375-0.82812-0.27344-0.1875-0.62109-0.22266-0.93359-0.10156l-19.871 7.9492c-0.37891 0.15234-0.62891 0.51953-0.62891 0.92969v21.863c-1.3477-0.91406-3.1836-1.2188-5.1289-0.82422-3.7891 0.76953-6.7656 3.8477-6.7773 7.0078-0.003906 1.3906 0.57812 2.6367 1.6406 3.5078 1.0039 0.82422 2.3516 1.2578 3.8398 1.2578 0.53906 0 1.0938-0.058593 1.6562-0.17188 3.6875-0.75 6.5977-3.6836 6.7617-6.7539 0-0.011719 0.007813-0.023438 0.007813-0.035156v-0.078125c0-0.046875 0.007813-0.09375 0.007813-0.14062 0-0.027344-0.007813-0.054688-0.007813-0.085938l0.003906-16.922 17.871-7.1484v12.43c-1.3555-0.92188-3.2031-1.2266-5.1641-0.82031-3.7891 0.78516-6.7578 3.8672-6.7578 7.0234 0 1.3867 0.58594 2.625 1.6484 3.4922 1.0039 0.81641 2.3438 1.2461 3.8242 1.2461 0.54688 0 1.1133-0.058594 1.6875-0.17578 3.793-0.78516 6.7578-3.8711 6.7578-7.0273zm-27.039 13.035c-1.5117 0.30859-2.9414 0.058593-3.832-0.67188-0.59766-0.49219-0.91406-1.168-0.91016-1.9531 0.007812-2.1719 2.3789-4.4883 5.1758-5.0547 0.42578-0.085937 0.84375-0.12891 1.2461-0.12891 1.0273 0 1.9492 0.27734 2.5859 0.80078 0.57422 0.47266 0.87891 1.1172 0.89844 1.8672v0.15234c-0.050781 2.1523-2.3945 4.4258-5.1641 4.9883zm7.168-24.211v-5.793l17.871-7.1484v5.793zm12.707 16.242c-1.5156 0.31641-2.9531 0.066406-3.8477-0.66016-0.59766-0.48437-0.91406-1.1562-0.91406-1.9414 0-2.168 2.3633-4.4844 5.1641-5.0625 0.43359-0.089844 0.85938-0.13281 1.2695-0.13281 1.0234 0 1.9375 0.27344 2.5742 0.79297 0.59766 0.48828 0.91406 1.1562 0.91406 1.9414 0.003907 2.1641-2.3594 4.4844-5.1602 5.0625z"/>
 <path d="m80.344 68.109c-1.4102-0.78125-2.8672-1.5938-4.2734-5.2617-0.17187-0.44922-0.64453-0.71484-1.1172-0.625s-0.81641 0.5-0.81641 0.98438v21.855c-1.3555-0.92188-3.2031-1.2227-5.1641-0.82031-3.7891 0.78516-6.7578 3.8672-6.7578 7.0234 0 1.3867 0.58594 2.625 1.6484 3.4922 1.0039 0.81641 2.3477 1.2422 3.8281 1.2422 0.54688 0 1.1133-0.058594 1.6875-0.17578 3.7891-0.78125 6.7578-3.8672 6.7578-7.0234v-21.598c1.1211 1.4766 2.2539 2.1055 3.2383 2.6523 1.6328 0.90625 2.7109 1.5078 2.7109 7.2578 0 0.55078 0.44922 1 1 1 0.55078 0 1-0.44922 1-1 0-6.4609-1.4141-7.7109-3.7422-9.0039zm-11.371 25.754c-1.5156 0.3125-2.9531 0.066407-3.8477-0.66016-0.59766-0.48828-0.91406-1.1562-0.91406-1.9414 0-2.168 2.3633-4.4844 5.1641-5.0625 0.43359-0.089844 0.85938-0.13281 1.2695-0.13281 1.0234 0 1.9375 0.27344 2.5781 0.79297 0.59766 0.48828 0.91406 1.1562 0.91406 1.9414 0 2.168-2.3633 4.4844-5.1641 5.0625z"/>
 <path d="m78.113 31.23c0 0.55078 0.44922 1 1 1s1-0.44922 1-1v-1c0-0.55078-0.44922-1-1-1s-1 0.44922-1 1z"/>
 <path d="m78.113 59.23c0 0.55078 0.44922 1 1 1s1-0.44922 1-1v-1c0-0.55078-0.44922-1-1-1s-1 0.44922-1 1z"/>
 <path d="m78.113 51.23c0 0.55078 0.44922 1 1 1s1-0.44922 1-1v-1c0-0.55078-0.44922-1-1-1s-1 0.44922-1 1z"/>
 <path d="m78.113 55.23c0 0.55078 0.44922 1 1 1s1-0.44922 1-1v-1c0-0.55078-0.44922-1-1-1s-1 0.44922-1 1z"/>
 <path d="m78.113 47.23c0 0.55078 0.44922 1 1 1s1-0.44922 1-1v-1c0-0.55078-0.44922-1-1-1s-1 0.44922-1 1z"/>
 <path d="m78.113 35.23c0 0.55078 0.44922 1 1 1s1-0.44922 1-1v-1c0-0.55078-0.44922-1-1-1s-1 0.44922-1 1z"/>
 <path d="m78.113 43.23c0 0.55078 0.44922 1 1 1s1-0.44922 1-1v-1c0-0.55078-0.44922-1-1-1s-1 0.44922-1 1z"/>
 <path d="m79.113 28.23c0.55078 0 1-0.44922 1-1v-1c0-0.55078-0.44922-1-1-1s-1 0.44922-1 1v1c0 0.55078 0.44531 1 1 1z"/>
 <path d="m78.113 39.23c0 0.55078 0.44922 1 1 1s1-0.44922 1-1v-1c0-0.55078-0.44922-1-1-1s-1 0.44922-1 1z"/>
</svg>