<svg xmlns="http://www.w3.org/2000/svg">
  <defs>
    <symbol id="icon-country" viewBox="0 0 110.0 135.0">
      <svg xmlns="http://www.w3.org/2000/svg" version="1.1" viewBox="0 0 110.0 135.0">
        <path d="m24.156 66.93c0.03125-0.30078-0.074219-0.60156-0.28516-0.81641l-1.2539-1.25c-0.39063-0.39062-1.0234-0.39062-1.4141 0s-0.39062 1.0234 0 1.4141l0.94141 0.94141c0.027344 1.8945 1.3164 4.0977 3.9258 6.7031 2.6094 2.6094 4.8125 3.8984 6.707 3.9258l0.94141 0.94141c0.19531 0.19531 0.44922 0.29297 0.70703 0.29297 0.25781 0 0.51172-0.097656 0.70703-0.29297 0.39063-0.39062 0.39063-1.0234 0-1.4141l-1.2539-1.25c-0.21484-0.21484-0.51172-0.32031-0.81641-0.28516-0.92969 0.10156-2.6484-0.39453-5.582-3.3281-2.9297-2.9375-3.4258-4.6562-3.3242-5.582z"/>
        <path d="m95.707 16.773c-1.2148-1.2148-1.6211-2.1953-2.0898-3.332-0.50781-1.2305-1.082-2.6211-2.75-4.2891-1.6641-1.668-3.0625-2.2461-4.2969-2.7617-1.1406-0.47266-2.125-0.88281-3.3438-2.1016-0.18359-0.18359-0.44141-0.28906-0.70312-0.28906-0.26563 0-0.51953 0.10547-0.70703 0.29297-2.4492 2.4492-12.496 12.48-12.496 12.48-0.1875 0.1875-0.29297 0.44141-0.29297 0.70703v5.1445l-18.391 18.395-3.4531-3.4531c-2.9805-2.9766-5.5469-4.3672-9.8555-2.6758-2.3359 0.91797-3.3945 2.9297-4.6172 5.2617-1.1211 2.1328-2.3906 4.5469-4.9648 7.1211-1.6172 1.6172-4.0977 2.1016-6.9648 2.6602-3.9492 0.76953-8.4297 1.6445-12.445 5.6602-3.457 3.4531-4.8906 7.8906-4.1445 12.824 0.82812 5.4805 4.2539 11.262 10.188 17.191 8.0039 8 14.57 10.379 19.559 10.379 5.4492 0 9.0039-2.8438 10.473-4.3125 4.0156-4.0156 4.8867-8.4922 5.6602-12.445 0.55859-2.8711 1.043-5.3477 2.6602-6.9648 2.5742-2.5703 4.9883-3.8438 7.1211-4.9688 2.332-1.2266 4.3477-2.2852 5.2656-4.6211 1.6914-4.3008 0.29687-6.8672-2.6836-9.8516l-3.4453-3.4492 11.07-11.059c0.39062-0.39062 0.39062-1.0234 0-1.4141s-1.0234-0.39062-1.4141 0l-18.012 17.988-5.5195-5.5195 24.906-24.914 5.5391 5.5352-1.6914 1.6875c-0.39063 0.39062-0.39063 1.0234 0 1.4141 0.39062 0.39062 1.0234 0.39062 1.4141 0l2.1055-2.1055h5.1484c0.26562 0 0.51953-0.10547 0.70703-0.29297l12.461-12.516c0.39453-0.38281 0.39453-1.0195 0.003906-1.4062zm-46.004 40.016c0.46875 2.4219-0.19531 4.8086-1.8281 6.4375-3.1016 3.1016-8.1172 3.1328-11.176 0.074219-1.4805-1.4805-2.2891-3.457-2.2773-5.5625 0.011719-2.1133 0.84766-4.1016 2.3516-5.6055 1.7227-1.7188 4.3281-2.457 6.418-1.8555zm-6.3125-8.5195c-2.7227-0.63672-5.8711 0.28906-8.0312 2.4453-1.8789 1.8789-2.9219 4.3672-2.9375 7.0078-0.015625 2.6445 1 5.1289 2.8633 6.9922 1.9062 1.9062 4.418 2.8555 6.9336 2.8555 2.5547 0 5.1172-0.98047 7.0703-2.9297 2.0469-2.0469 2.918-5 2.4141-7.9883l5.8672-5.8594 3.4492 3.4492c2.6133 2.6172 3.5586 4.3477 2.2383 7.7031-0.64844 1.6445-2.1953 2.4609-4.3359 3.5859-2.1445 1.1289-4.8164 2.5352-7.6055 5.3203-2.0508 2.0508-2.6133 4.9375-3.2109 7.9961-0.71484 3.6719-1.5273 7.832-5.1094 11.414-6.6172 6.6133-16.785 4.3438-27.203-6.0703-5.625-5.6211-8.8633-11.027-9.625-16.07-0.64844-4.2812 0.58984-8.125 3.5781-11.113 3.5859-3.582 7.7422-4.3945 11.414-5.1094 3.0586-0.59766 5.9453-1.1602 7.9961-3.2109 2.7891-2.7891 4.1914-5.4609 5.3203-7.6055 1.1211-2.1367 1.9336-3.6836 3.5781-4.3281 3.3633-1.3242 5.0977-0.38281 7.7109 2.2266l3.4531 3.4531zm38.734-19.277h-4.7344l-6.3672-6.3633v-4.7305c1.5312-1.5273 8.6484-8.6367 11.527-11.512 1.1875 0.99609 2.2344 1.4336 3.2539 1.8555 1.1641 0.48437 2.2656 0.94141 3.6523 2.3281 1.3828 1.3867 1.8359 2.4805 2.3125 3.6367 0.41797 1.0156 0.85156 2.0625 1.8477 3.2461z"/>
      </svg>
    </symbol>

    <symbol id="icon-pop" viewBox="0 0 110.0 135.0">
      <svg xmlns="http://www.w3.org/2000/svg" version="1.1" viewBox="0 0 110.0 135.0">
        <path d="m47.441 49.352c-1.4336-1.2695-3.2891-1.9297-5.2422-1.8438-0.55078 0.023438-0.98047 0.48828-0.95703 1.043 0.023437 0.55078 0.50781 0.97656 1.043 0.95703 1.4453-0.054687 2.7734 0.40234 3.8281 1.3398 1.0547 0.9375 1.6758 2.2266 1.7422 3.625 0.14062 2.8828-2.1289 5.3438-5.0547 5.4844-2.9766 0.14844-5.4297-2.0898-5.5703-4.9648-0.027344-0.55078-0.50781-0.98047-1.0469-0.94922-0.55078 0.027343-0.97656 0.49609-0.94922 1.0469 0.1875 3.8555 3.3945 6.875 7.3008 6.875 0.12109 0 0.23828-0.003906 0.36328-0.007813 4.0273-0.19922 7.1484-3.5977 6.957-7.5781-0.09375-1.9453-0.95312-3.7305-2.4141-5.0273z"/>
        <path d="m30.566 46.551c0.30469 0 0.60156-0.13672 0.80078-0.39844 0.33203-0.44141 0.24219-1.0664-0.19531-1.3984l-11.562-8.707c-0.44141-0.33203-1.0664-0.24219-1.3984 0.19531-0.33203 0.44141-0.24219 1.0664 0.19531 1.3984l11.562 8.707c0.17969 0.13672 0.39062 0.20312 0.59766 0.20312z"/>
        <path d="m39.281 71.234c-0.53906-0.10156-1.0664 0.25391-1.1719 0.79688l-2.2539 11.805c-0.10547 0.54297 0.25391 1.0664 0.79688 1.1719 0.0625 0.011719 0.125 0.019532 0.1875 0.019532 0.47266 0 0.89062-0.33203 0.98047-0.8125l2.2539-11.805c0.10547-0.54688-0.25-1.0703-0.79297-1.1758z"/>
        <path d="m33.992 68.18-8.332 11.836c-0.31641 0.45312-0.21094 1.0742 0.24219 1.3945 0.17578 0.12109 0.375 0.18359 0.57422 0.18359 0.3125 0 0.625-0.14844 0.82031-0.42578l8.332-11.836c0.31641-0.45312 0.21094-1.0742-0.24219-1.3945s-1.0781-0.21094-1.3945 0.24219z"/>
        <path d="m88.227 48.125c-0.76172 0-1.4258 0.21094-1.9961 0.5625v-0.10547c0-2.7227-1.5703-4.5508-3.9141-4.5508-0.76953 0-1.4492 0.21484-2.0234 0.57812-0.35156-1.918-1.6016-3.1836-3.3633-3.3672-2.457-6.0352-6.5391-11.289-11.699-15.176v-5.4062c0.60938 0.60938 1.2031 0.94141 1.7109 1.2188 1.0391 0.57812 1.668 0.92578 1.668 4.6289 0 0.55078 0.44922 1 1 1s1-0.44922 1-1c0-4.5391-1.0664-5.4727-2.6953-6.375-0.90234-0.50391-1.8359-1.0195-2.7461-3.3906-0.17188-0.44922-0.64453-0.71094-1.1172-0.625-0.47266 0.089843-0.81641 0.5-0.81641 0.98437v7.5703c-1.5508-1.0117-3.1797-1.9023-4.8828-2.6641 0.09375-0.33984 0.16016-0.6875 0.16016-1.0352l-0.003907-10.574v-0.003907-5.3945c0-0.33203-0.16406-0.64062-0.4375-0.82812-0.27344-0.1875-0.625-0.22266-0.93359-0.10156l-13.445 5.3789c-0.37891 0.15234-0.62891 0.51953-0.62891 0.92969v5.3555 0.003906 3.1602c-19.469 0.34766-35.199 16.285-35.199 35.836 0 19.77 16.082 35.852 35.852 35.852 7.7461 0 15.105-2.4297 21.309-7.0195 1.7383 2.0508 3.832 3.2773 5.1953 3.8398l-0.15625 7.5781c-0.011719 0.55078 0.42578 1.0078 0.98047 1.0195h0.019531c0.54297 0 0.98828-0.43359 1-0.98047l0.17188-8.293c0.007813-0.44922-0.28516-0.85156-0.71875-0.98047-0.96094-0.28516-3.2539-1.3945-5.0586-3.5742-1.3711-1.6562-2.0039-4.4141-2.7344-7.6094-0.36719-1.5977-0.74609-3.2539-1.2539-4.9297-1.0977-3.6133-3.5039-8.9219-4.4453-10.941 0.52734-0.25 1.0234-0.32031 1.5117-0.20312 1.2266 0.28906 2.1836 1.707 2.4492 2.2266l4.8672 9.6719c0.20703 0.41406 0.67188 0.62891 1.125 0.52344 0.44922-0.10547 0.76953-0.51172 0.76953-0.97266l0.003906-21.988c0-0.76562 0.1875-2.5508 1.9141-2.5508 1.7266 0 1.9141 1.7852 1.9141 2.5508v16.895c0 0.55078 0.44922 1 1 1s1-0.44922 1-1v-19.102c0-0.76562 0.1875-2.5508 1.9141-2.5508 1.7266 0 1.9141 1.7852 1.9141 2.5508v18.852c0 0.55078 0.44922 1 1 1s1-0.44922 1-1v-1.957l-0.003906-14.059c0-0.76562 0.1875-2.5508 1.9141-2.5508 1.7266 0 1.9141 1.7812 1.9141 2.5508l-0.003907 16.457c0 0.55078 0.44922 1 1 1 0.44531 0 0.8125-0.30078 0.94141-0.70312 0.085937-0.14453 0.14453-0.30859 0.14453-0.48828v-12.172c0-0.76562 0.1875-2.5508 1.9141-2.5508 1.7266 0 1.9141 1.7812 1.9141 2.5508v2.0586c0 0.55078 0.44922 1 1 1s1-0.44922 1-1v-2.0586c-0.003906-2.7227-1.5742-4.5508-3.9141-4.5508zm-43.164-31.695 11.441-4.5781v6.0312c-0.91797-0.4375-2.0508-0.5625-3.2344-0.31641-1.3359 0.27734-2.5234 0.95703-3.3867 1.8516-1.5859-0.27344-3.1992-0.44531-4.8203-0.50781zm8.6133 3.0977c0.27344-0.058594 0.54297-0.085938 0.79688-0.085938 0.61719 0 1.1602 0.16016 1.5352 0.46484 0.33203 0.26953 0.5 0.62891 0.5 1.0625 0 1.3242-1.4805 2.7461-3.2344 3.1094-0.92969 0.19141-1.8047 0.050781-2.332-0.37891-0.33203-0.26953-0.5-0.625-0.5-1.0625 0-1.3203 1.4805-2.7461 3.2344-3.1094zm2.832-13.051v3.2227l-11.441 4.5781v-3.2227zm-13.445 19.934c-0.035156 1.3125-1.5039 2.7109-3.2383 3.0625-0.92969 0.1875-1.7969 0.042969-2.3203-0.38672-0.33203-0.27344-0.5-0.63281-0.49609-1.0703 0.003907-1.3281 1.4883-2.7461 3.2422-3.1055 0.26953-0.054687 0.53125-0.082031 0.78125-0.082031 0.61719 0 1.1641 0.16016 1.5391 0.46875 0.31641 0.25781 0.47656 0.60156 0.49219 1.0117zm29.754 17.648c-0.60156-0.41797-1.3242-0.65625-2.1562-0.65625-2.3398 0-3.9141 1.8281-3.9141 4.5508v17.773l-2.9766-5.9102c-0.054687-0.10938-1.3828-2.7031-3.7656-3.2695-1.2852-0.30859-2.5859 0.015625-3.8633 0.95703-0.38672 0.28516-0.51562 0.80469-0.30859 1.2344 0.035157 0.070313 3.4102 7.1758 4.7188 11.477 0.48828 1.6094 0.85938 3.2305 1.2188 4.793 0.58203 2.5469 1.1445 4.9727 2.1406 6.8828-5.8711 4.375-12.852 6.6914-20.199 6.6914-18.664 0-33.852-15.188-33.852-33.852 0-0.22656 0.011719-0.44922 0.015625-0.67578l18.477 0.92969h0.050782c0.52734 0 0.97266-0.41406 0.99609-0.94922 0.027343-0.55078-0.39453-1.0195-0.94922-1.0508l-18.48-0.92969c1.3594-17.203 15.625-30.824 33.094-31.156v2.3711c-0.91406-0.4375-2.0352-0.55859-3.2109-0.31641-2.707 0.55078-4.8359 2.7695-4.8438 5.0547-0.003906 1.0391 0.43359 1.9727 1.2305 2.625 0.73828 0.60547 1.7227 0.92188 2.8047 0.92188 0.38672 0 0.78125-0.039063 1.1836-0.12109 2.5977-0.52734 4.6367-2.5938 4.8125-4.7734 0.007813-0.046875 0.027344-0.085937 0.027344-0.13281v-0.097656c0-0.015626 0.007813-0.03125 0.007813-0.050782 0-0.019531-0.007813-0.035156-0.007813-0.058594v-5.4062c1.2266 0.046876 2.4453 0.16016 3.6523 0.33984-0.16797 0.44922-0.27734 0.91406-0.27734 1.3867 0 1.0352 0.4375 1.9648 1.2344 2.6133 0.73438 0.60156 1.7148 0.91406 2.793 0.91406 0.39062 0 0.79688-0.042969 1.207-0.125 1.5273-0.31641 2.8555-1.1719 3.7344-2.2617 2.0547 0.91016 4 2.0195 5.8164 3.3086v4.2461c-0.91797-0.4375-2.0508-0.55859-3.2344-0.31641-2.7109 0.55859-4.832 2.7852-4.832 5.0664 0 1.0352 0.4375 1.9648 1.2344 2.6133 0.73438 0.60156 1.7188 0.91406 2.793 0.91406 0.39062 0 0.79688-0.042969 1.207-0.125 2.707-0.55859 4.8281-2.7852 4.8281-5.0664v-5.7969c4.1797 3.4531 7.5195 7.8828 9.6562 12.914-0.99219 0.44141-1.7109 1.332-2.0625 2.5195zm-9.5898-9.6445c0 1.3242-1.4805 2.7461-3.2344 3.1094-0.93359 0.19141-1.8047 0.050781-2.332-0.37891-0.33203-0.26953-0.5-0.62891-0.5-1.0625 0-1.3242 1.4805-2.7461 3.2344-3.1094 0.27344-0.058594 0.54297-0.085937 0.79688-0.085937 0.61719 0 1.1602 0.16016 1.5352 0.46484 0.33203 0.26953 0.5 0.625 0.5 1.0625z"/>
        <path d="m91.137 58.176c-0.55078 0-1 0.44922-1 1v10.395c0 0.097657-0.035157 9.7422-2.8984 13.672-0.91016 1.2461-1.6719 2.0352-2.332 2.4102-0.30859 0.17578-0.5 0.49609-0.50781 0.85156l-0.17188 8.4766c-0.011718 0.55078 0.42969 1.0078 0.98047 1.0195h0.019531c0.54297 0 0.98828-0.43359 1-0.98047l0.16016-7.9453c0.76953-0.55859 1.5664-1.418 2.4688-2.6523 3.2461-4.457 3.2812-14.43 3.2812-14.852l0.003906-10.395c-0.003906-0.55078-0.44922-1-1.0039-1z"/>
        <path d="m42.551 43.477c-6.207 0-11.258 5.0508-11.258 11.258s5.0508 11.258 11.258 11.258 11.258-5.0508 11.258-11.258c-0.003906-6.2109-5.0508-11.258-11.258-11.258zm0 20.512c-5.1055 0-9.2578-4.1523-9.2578-9.2578s4.1523-9.2578 9.2578-9.2578 9.2578 4.1523 9.2578 9.2578c-0.003906 5.1055-4.1562 9.2578-9.2578 9.2578z"/>
      </svg>
    </symbol>

    <symbol id="icon-rock" viewBox="0 0 110.0 135.0">
      <svg xmlns="http://www.w3.org/2000/svg" version="1.1" viewBox="0 0 110.0 135.0">
        <path d="m69.77 11.141c-3.1328-0.28906-5.6445 2.0273-6.0898 5.6602l-1.5742 12.578c-1.0859-0.97656-2.6328-1.5938-4.3555-1.5938-1.6562 0-3.1562 0.57031-4.2344 1.4844-0.8125-2.0039-3.2188-3.4648-6.0547-3.4648-1.8789 0-3.5312 0.65234-4.6484 1.6914-1.2031-7.5352-2.5703-16.035-2.8555-17.664-0.65625-3.7422-3.5586-6.2266-6.7344-5.7812-3.457 0.45312-5.5156 3.0586-5.125 6.4766 0.40625 3.5703 3.3008 27.285 3.8594 31.887-0.023437 0.011719-0.054687 0.019532-0.074219 0.03125-3.3242 1.4648-8.1289 12.84-7.3516 15.949 0.73438 2.9375 4.9609 10.18 6.7852 12.004l0.33203 0.33203c1.6094 1.5977 2.9961 2.9805 2.9961 5.0664v19.203c0 0.55078 0.44922 1 1 1s1-0.44922 1-1v-19.199c0-2.9219-1.8242-4.7344-3.5898-6.4844l-0.32813-0.32422c-1.6016-1.6016-5.6133-8.4922-6.2578-11.074-0.53125-2.1289 3.8945-12.613 6.2188-13.633 2.5234-1.1094 15.449-4.4688 20.281-5.625 1.5039 4.8047 1.1562 6.8516-2.9688 8.8711-2.5469 1.2461-6.082 2.9258-8.4609 3.8594-0.41016 0.16016-0.66406 0.56641-0.63281 1.0078 0.03125 0.4375 0.34766 0.80469 0.77344 0.89844 5.6523 1.2891 11.742 5.4961 11.895 13.445 0.011719 0.55078 0.46484 1.0039 1.0195 0.98047 0.55078-0.011718 0.99219-0.46875 0.98047-1.0195-0.14844-7.8164-5.25-12.461-10.734-14.539 2.0234-0.89844 4.2695-1.9727 6.0352-2.8398 1.6211-0.79297 2.7539-1.6602 3.5234-2.6016 1.0039 0.54297 2.1758 0.85156 3.3477 0.85156 3.2773 0 5.9414-2.2227 5.9414-4.9531v-9.8203l1.9688-15.754c0.26172-2.1094 1.5742-4.1445 3.9141-3.9141 2.2422 0.21484 4.0977 1.9531 3.9766 3.7188l-0.45703 6.0234c-0.042969 0.55078 0.37109 1.0312 0.92188 1.0703 0.54297 0.035157 1.0312-0.37109 1.0703-0.92187l0.45703-6.0312c0.21094-2.8555-2.4375-5.5312-5.7695-5.8516zm-22.305 16.664c2.3555 0 4.3477 1.3516 4.3477 2.9531v6.1172c-1.8438 0.44922-4.457 1.1094-7.207 1.832-0.24219-1.5234-0.71484-4.4961-1.2734-7.9922 0.03125-1.6328 1.832-2.9102 4.1328-2.9102zm-17.379-17.504c-0.31641-2.7773 1.5469-4.0234 3.4062-4.2695 2.1016-0.28906 4.0312 1.4883 4.4961 4.1445 0.47266 2.6914 3.9297 24.387 4.6719 29.047-3.3242 0.89062-6.6133 1.8125-8.7734 2.5078-0.66797-5.4883-3.4062-27.965-3.8008-31.43zm31.609 32.316c0 1.6289-1.7695 2.9531-3.9414 2.9531-0.81641 0-1.6484-0.21094-2.3516-0.57812 0.83594-2.2734 0.16406-4.8945-0.81641-7.8398-0.11719-0.35938-0.42188-0.60156-0.77344-0.66406v-3.7539c0-1.6289 1.7695-2.9531 3.9414-2.9531s3.9414 1.3242 3.9414 2.9531z"/>
        <path d="m73.656 28.773c-0.54297-0.046876-1.0312 0.37109-1.0703 0.92187l-1.0078 13.375v22.281c0 2.8477-1.7461 5.3047-3.2891 7.4766-1.3594 1.9102-2.6406 3.7148-2.6406 5.6211v16.551c0 0.55078 0.44922 1 1 1 0.55078 0 1-0.44922 1-1v-16.555c0-1.2656 1.1055-2.8164 2.2695-4.4609 1.7148-2.4141 3.6562-5.1445 3.6562-8.6328l-0.003907-22.207 1.0039-13.297c0.046875-0.55078-0.36328-1.0312-0.91797-1.0742z"/>
      </svg>
    </symbol>

    <symbol id="icon-jazz" viewBox="0 0 110.0 135.0">
      <svg xmlns="http://www.w3.org/2000/svg" version="1.1" viewBox="0 0 110.0 135.0">
        <path d="m41.941 44.465c-1.8828 1.8828-2.1562 4.8945-1.0547 8.1094-1.9609 3.6523-1.9766 7.4531-1.9766 12.312v9.0703c0 0.44531-0.19531 0.87109-0.53516 1.1602-0.34766 0.29687-0.78906 0.41406-1.2461 0.33984-0.71875-0.11719-1.2578-0.81641-1.2578-1.6289l-0.003906-29.133h1.5234c0.55078 0 1-0.44922 1-1 0-0.55078-0.44922-1-1-1h-1.5234v-3.043h1.5234c0.55078 0 1-0.44922 1-1 0-0.55078-0.44922-1-1-1h-1.5234v-3.043h1.5234c0.55078 0 1-0.44922 1-1s-0.44922-1-1-1h-1.5234v-12.512c0-5.457-4.2734-10.027-9.5273-10.184-4.7852-0.14453-7.3867 2.8555-9.793 7.3984-0.66406 1.2539-1.1641 1.4258-1.5664 1.4258h-0.28906c-0.55078 0-1 0.44922-1 1s0.44922 1 1 1h0.28906c2.0117 0 3.0078-1.8711 3.332-2.4883 2.1719-4.0977 4.1836-6.4336 7.9688-6.3359 4.1836 0.125 7.5859 3.7969 7.5859 8.1836v12.512h-1.5234c-0.55078 0-1 0.44922-1 1s0.44922 1 1 1h1.5234v3.043h-1.5234c-0.55078 0-1 0.44922-1 1 0 0.55078 0.44922 1 1 1h1.5234v3.043h-1.5234c-0.55078 0-1 0.44922-1 1 0 0.55078 0.44922 1 1 1h1.5234v3.043h-1.5234c-0.55078 0-1 0.44922-1 1s0.44922 1 1 1h1.5234v3.043h-1.5234c-0.55078 0-1 0.44922-1 1s0.44922 1 1 1h1.5234v3.043h-1.5234c-0.55078 0-1 0.44922-1 1s0.44922 1 1 1h1.5234v3.043h-1.5234c-0.55078 0-1 0.44922-1 1 0 0.55078 0.44922 1 1 1h1.5234v3.043h-1.5234c-0.55078 0-1 0.44922-1 1 0 0.55078 0.44922 1 1 1h1.5234v3.918c0 1.7812 1.2617 3.3281 2.9375 3.6016 0.19141 0.03125 0.38672 0.046874 0.57812 0.046874 0.83594 0 1.6445-0.29297 2.2852-0.83984 0.78906-0.67188 1.2422-1.6484 1.2422-2.6836v-9.1602c0-3.8086 0.015625-6.9492 1.0664-9.7773 0.86328 1.582 2.0312 3.1602 3.4961 4.625 0.39062 0.39062 1.0234 0.39062 1.4141 0s0.39062-1.0234 0-1.4141c-4.3047-4.3047-5.9219-9.9609-3.5312-12.352s8.0469-0.77344 12.352 3.5312c4.3047 4.3047 5.9219 9.9609 3.5312 12.352-1.4883 1.4883-4.3672 1.4766-7.5117-0.035156-0.49609-0.23828-1.0938-0.03125-1.3359 0.46875-0.23828 0.49609-0.03125 1.0938 0.46875 1.3359 0.71875 0.34375 1.418 0.60156 2.1094 0.81641-0.80859 1.4727-1.2734 3.4648-1.4062 6.0391-0.027344 0.55078 0.39453 1.0195 0.94531 1.0508h0.050782c0.52734 0 0.96875-0.41406 0.99609-0.94922 0.13281-2.5898 0.63281-4.4922 1.4805-5.6836 0.375 0.046875 0.74609 0.074219 1.1055 0.074219 1.8125 0 3.3711-0.57031 4.5039-1.7031 3.2656-3.2656 1.7148-9.9336-3.5312-15.18-5.2383-5.2422-11.906-6.793-15.172-3.5273z"/>
        <path d="m55.305 58.828c0 0.55078 0.44922 1 1 1 0.55078 0 1-0.44922 1-1 0-1.4336-0.76172-4.6172-3.6172-7.4727s-6.0391-3.6172-7.4727-3.6172c-0.55078 0-1 0.44922-1 1s0.44922 1 1 1c1.0469 0 3.6602 0.63281 6.0586 3.0312 2.3984 2.3945 3.0312 5.0117 3.0312 6.0586z"/>
        <path d="m52.418 75.535c-0.54688-0.10547-1.0664 0.24609-1.1758 0.78906-1.3125 6.707-7.0352 11.652-13.605 11.766-6.7539 0.097656-12.668-4.5859-14.07-11.176-0.28125-1.3203-0.32031-2.7852-0.125-4.4727 1.0391-8.9414 6.0664-53.406 6.1172-53.855 0.003906-0.035157 0.007812-0.074219 0.007812-0.11328 0-1.9414-1.5781-3.5234-3.5234-3.5234-1.1289 0-2.1953 0.54688-2.8555 1.4609-0.82812 1.1484-1.7539 2.7578-1.793 2.8242-0.27344 0.48047-0.10938 1.0898 0.36719 1.3633 0.48047 0.27734 1.0898 0.10938 1.3633-0.36719 0.007812-0.015625 0.91406-1.5859 1.6797-2.6484 0.28516-0.39453 0.74609-0.63281 1.2344-0.63281 0.82422 0 1.4961 0.65625 1.5195 1.4727-0.21875 1.9219-5.0859 45.004-6.1094 53.785-0.22266 1.9062-0.17188 3.582 0.15625 5.1172 1.5781 7.4375 8.1914 12.766 15.785 12.766 0.089844 0 0.18359 0 0.27734-0.003906 7.5078-0.12891 14.043-5.7578 15.535-13.383 0.10938-0.53516-0.24219-1.0625-0.78516-1.168z"/>
        <path d="m85.836 12.578c-0.29688-0.18359-0.66406-0.19922-0.97266-0.042969l-15.133 7.5664c-0.33984 0.16797-0.55469 0.51563-0.55469 0.89453v15.227c-1.8086-1.3008-4.5039-1.4766-6.793-0.24219-1.5664 0.84766-2.707 2.2266-3.1211 3.7812-0.34766 1.3008-0.16406 2.6289 0.51953 3.7344 0.98047 1.5859 2.8203 2.4492 4.793 2.4492 1.1055 0 2.2539-0.27344 3.3086-0.84375 1.5664-0.84766 2.707-2.2266 3.1211-3.7812 0.11719-0.43359 0.15234-0.86719 0.14844-1.3008 0.003906-0.039062 0.023437-0.070312 0.023437-0.10938l0.003907-11.988 13.133-6.5664v8.5625c-1.8086-1.3008-4.5039-1.4766-6.793-0.24219-1.5664 0.84766-2.707 2.2266-3.1211 3.7812-0.34766 1.3008-0.16406 2.6289 0.51953 3.7344 0.98047 1.5859 2.8203 2.4492 4.793 2.4492 1.1055 0 2.2539-0.27344 3.3086-0.84375 1.5664-0.84766 2.707-2.2266 3.1211-3.7812 0.11719-0.43359 0.15234-0.87109 0.14844-1.3008 0.003907-0.039063 0.023438-0.070313 0.023438-0.10938l-0.003906-20.176c0-0.34375-0.17969-0.66797-0.47266-0.85156zm-16.766 28.227c-0.27344 1.0273-1.0547 1.9531-2.1406 2.5391-2.0234 1.0938-4.4688 0.6875-5.4492-0.89844-0.5-0.8125-0.43359-1.6289-0.28906-2.168 0.27344-1.0273 1.0547-1.9531 2.1406-2.5391 0.76953-0.41406 1.6016-0.61328 2.3867-0.61328 1.2812 0 2.4531 0.52734 3.0625 1.5117 0.50391 0.8125 0.43359 1.6289 0.28906 2.168zm2.1055-15.121v-4.0664l13.133-6.5664v4.0703zm13.027 8.8203c-0.27344 1.0273-1.0547 1.9531-2.1406 2.5391-2.0234 1.0938-4.4688 0.6875-5.4492-0.89844-0.5-0.8125-0.43359-1.6289-0.28906-2.168 0.27344-1.0273 1.0547-1.9531 2.1406-2.5391 0.76953-0.41406 1.6016-0.61328 2.3867-0.61328 1.2812 0 2.4531 0.52734 3.0625 1.5117 0.5 0.80859 0.43359 1.625 0.28906 2.168z"/>
        <path d="m83.34 46.645-3.7812-2.5234c-0.30859-0.20703-0.70312-0.22656-1.0273-0.050782-0.32422 0.17578-0.52734 0.51172-0.52734 0.88281v15.227c-1.8086-1.3008-4.5039-1.4766-6.793-0.24219-1.5664 0.84766-2.707 2.2266-3.1211 3.7812-0.34766 1.3008-0.16406 2.6289 0.51953 3.7344 0.98047 1.5859 2.8203 2.4492 4.793 2.4492 1.1055 0 2.2539-0.27344 3.3086-0.84375 1.5664-0.84766 2.707-2.2266 3.1211-3.7812 0.11719-0.43359 0.15234-0.87109 0.14844-1.3008 0.003906-0.039062 0.023437-0.070312 0.023437-0.10937v-17.043l2.1836 1.4531c1.5078 1.1328 2.1211 2.7266 2.1211 5.5039 0 0.55078 0.44922 1 1 1 0.55078 0 1-0.44922 1-1 0-2.4258-0.34766-5.1719-2.9688-7.1367zm-5.4414 18.121c-0.27344 1.0273-1.0547 1.9531-2.1406 2.5391-2.0234 1.0938-4.4688 0.69141-5.4492-0.89844-0.5-0.8125-0.43359-1.6289-0.28906-2.168 0.27344-1.0273 1.0547-1.9531 2.1406-2.5391 0.76953-0.41406 1.6016-0.61328 2.3867-0.61328 1.2812 0 2.4531 0.52734 3.0625 1.5117 0.5 0.8125 0.43359 1.6289 0.28906 2.168z"/>
      </svg>
    </symbol>
  </defs>
</svg>