<svg xmlns="http://www.w3.org/2000/svg" version="1.1" viewBox="0 0 110.0 135.0">
 <path d="m41.941 44.465c-1.8828 1.8828-2.1562 4.8945-1.0547 8.1094-1.9609 3.6523-1.9766 7.4531-1.9766 12.312v9.0703c0 0.44531-0.19531 0.87109-0.53516 1.1602-0.34766 0.29687-0.78906 0.41406-1.2461 0.33984-0.71875-0.11719-1.2578-0.81641-1.2578-1.6289l-0.003906-29.133h1.5234c0.55078 0 1-0.44922 1-1 0-0.55078-0.44922-1-1-1h-1.5234v-3.043h1.5234c0.55078 0 1-0.44922 1-1 0-0.55078-0.44922-1-1-1h-1.5234v-3.043h1.5234c0.55078 0 1-0.44922 1-1s-0.44922-1-1-1h-1.5234v-12.512c0-5.457-4.2734-10.027-9.5273-10.184-4.7852-0.14453-7.3867 2.8555-9.793 7.3984-0.66406 1.2539-1.1641 1.4258-1.5664 1.4258h-0.28906c-0.55078 0-1 0.44922-1 1s0.44922 1 1 1h0.28906c2.0117 0 3.0078-1.8711 3.332-2.4883 2.1719-4.0977 4.1836-6.4336 7.9688-6.3359 4.1836 0.125 7.5859 3.7969 7.5859 8.1836v12.512h-1.5234c-0.55078 0-1 0.44922-1 1s0.44922 1 1 1h1.5234v3.043h-1.5234c-0.55078 0-1 0.44922-1 1 0 0.55078 0.44922 1 1 1h1.5234v3.043h-1.5234c-0.55078 0-1 0.44922-1 1 0 0.55078 0.44922 1 1 1h1.5234v3.043h-1.5234c-0.55078 0-1 0.44922-1 1s0.44922 1 1 1h1.5234v3.043h-1.5234c-0.55078 0-1 0.44922-1 1s0.44922 1 1 1h1.5234v3.043h-1.5234c-0.55078 0-1 0.44922-1 1s0.44922 1 1 1h1.5234v3.043h-1.5234c-0.55078 0-1 0.44922-1 1 0 0.55078 0.44922 1 1 1h1.5234v3.043h-1.5234c-0.55078 0-1 0.44922-1 1 0 0.55078 0.44922 1 1 1h1.5234v3.918c0 1.7812 1.2617 3.3281 2.9375 3.6016 0.19141 0.03125 0.38672 0.046874 0.57812 0.046874 0.83594 0 1.6445-0.29297 2.2852-0.83984 0.78906-0.67188 1.2422-1.6484 1.2422-2.6836v-9.1602c0-3.8086 0.015625-6.9492 1.0664-9.7773 0.86328 1.582 2.0312 3.1602 3.4961 4.625 0.39062 0.39062 1.0234 0.39062 1.4141 0s0.39062-1.0234 0-1.4141c-4.3047-4.3047-5.9219-9.9609-3.5312-12.352s8.0469-0.77344 12.352 3.5312c4.3047 4.3047 5.9219 9.9609 3.5312 12.352-1.4883 1.4883-4.3672 1.4766-7.5117-0.035156-0.49609-0.23828-1.0938-0.03125-1.3359 0.46875-0.23828 0.49609-0.03125 1.0938 0.46875 1.3359 0.71875 0.34375 1.418 0.60156 2.1094 0.81641-0.80859 1.4727-1.2734 3.4648-1.4062 6.0391-0.027344 0.55078 0.39453 1.0195 0.94531 1.0508h0.050782c0.52734 0 0.96875-0.41406 0.99609-0.94922 0.13281-2.5898 0.63281-4.4922 1.4805-5.6836 0.375 0.046875 0.74609 0.074219 1.1055 0.074219 1.8125 0 3.3711-0.57031 4.5039-1.7031 3.2656-3.2656 1.7148-9.9336-3.5312-15.18-5.2383-5.2422-11.906-6.793-15.172-3.5273z"/>
 <path d="m55.305 58.828c0 0.55078 0.44922 1 1 1 0.55078 0 1-0.44922 1-1 0-1.4336-0.76172-4.6172-3.6172-7.4727s-6.0391-3.6172-7.4727-3.6172c-0.55078 0-1 0.44922-1 1s0.44922 1 1 1c1.0469 0 3.6602 0.63281 6.0586 3.0312 2.3984 2.3945 3.0312 5.0117 3.0312 6.0586z"/>
 <path d="m52.418 75.535c-0.54688-0.10547-1.0664 0.24609-1.1758 0.78906-1.3125 6.707-7.0352 11.652-13.605 11.766-6.7539 0.097656-12.668-4.5859-14.07-11.176-0.28125-1.3203-0.32031-2.7852-0.125-4.4727 1.0391-8.9414 6.0664-53.406 6.1172-53.855 0.003906-0.035157 0.007812-0.074219 0.007812-0.11328 0-1.9414-1.5781-3.5234-3.5234-3.5234-1.1289 0-2.1953 0.54688-2.8555 1.4609-0.82812 1.1484-1.7539 2.7578-1.793 2.8242-0.27344 0.48047-0.10938 1.0898 0.36719 1.3633 0.48047 0.27734 1.0898 0.10938 1.3633-0.36719 0.007812-0.015625 0.91406-1.5859 1.6797-2.6484 0.28516-0.39453 0.74609-0.63281 1.2344-0.63281 0.82422 0 1.4961 0.65625 1.5195 1.4727-0.21875 1.9219-5.0859 45.004-6.1094 53.785-0.22266 1.9062-0.17188 3.582 0.15625 5.1172 1.5781 7.4375 8.1914 12.766 15.785 12.766 0.089844 0 0.18359 0 0.27734-0.003906 7.5078-0.12891 14.043-5.7578 15.535-13.383 0.10938-0.53516-0.24219-1.0625-0.78516-1.168z"/>
 <path d="m85.836 12.578c-0.29688-0.18359-0.66406-0.19922-0.97266-0.042969l-15.133 7.5664c-0.33984 0.16797-0.55469 0.51563-0.55469 0.89453v15.227c-1.8086-1.3008-4.5039-1.4766-6.793-0.24219-1.5664 0.84766-2.707 2.2266-3.1211 3.7812-0.34766 1.3008-0.16406 2.6289 0.51953 3.7344 0.98047 1.5859 2.8203 2.4492 4.793 2.4492 1.1055 0 2.2539-0.27344 3.3086-0.84375 1.5664-0.84766 2.707-2.2266 3.1211-3.7812 0.11719-0.43359 0.15234-0.86719 0.14844-1.3008 0.003906-0.039062 0.023437-0.070312 0.023437-0.10938l0.003907-11.988 13.133-6.5664v8.5625c-1.8086-1.3008-4.5039-1.4766-6.793-0.24219-1.5664 0.84766-2.707 2.2266-3.1211 3.7812-0.34766 1.3008-0.16406 2.6289 0.51953 3.7344 0.98047 1.5859 2.8203 2.4492 4.793 2.4492 1.1055 0 2.2539-0.27344 3.3086-0.84375 1.5664-0.84766 2.707-2.2266 3.1211-3.7812 0.11719-0.43359 0.15234-0.87109 0.14844-1.3008 0.003907-0.039063 0.023438-0.070313 0.023438-0.10938l-0.003906-20.176c0-0.34375-0.17969-0.66797-0.47266-0.85156zm-16.766 28.227c-0.27344 1.0273-1.0547 1.9531-2.1406 2.5391-2.0234 1.0938-4.4688 0.6875-5.4492-0.89844-0.5-0.8125-0.43359-1.6289-0.28906-2.168 0.27344-1.0273 1.0547-1.9531 2.1406-2.5391 0.76953-0.41406 1.6016-0.61328 2.3867-0.61328 1.2812 0 2.4531 0.52734 3.0625 1.5117 0.50391 0.8125 0.43359 1.6289 0.28906 2.168zm2.1055-15.121v-4.0664l13.133-6.5664v4.0703zm13.027 8.8203c-0.27344 1.0273-1.0547 1.9531-2.1406 2.5391-2.0234 1.0938-4.4688 0.6875-5.4492-0.89844-0.5-0.8125-0.43359-1.6289-0.28906-2.168 0.27344-1.0273 1.0547-1.9531 2.1406-2.5391 0.76953-0.41406 1.6016-0.61328 2.3867-0.61328 1.2812 0 2.4531 0.52734 3.0625 1.5117 0.5 0.80859 0.43359 1.625 0.28906 2.168z"/>
 <path d="m83.34 46.645-3.7812-2.5234c-0.30859-0.20703-0.70312-0.22656-1.0273-0.050782-0.32422 0.17578-0.52734 0.51172-0.52734 0.88281v15.227c-1.8086-1.3008-4.5039-1.4766-6.793-0.24219-1.5664 0.84766-2.707 2.2266-3.1211 3.7812-0.34766 1.3008-0.16406 2.6289 0.51953 3.7344 0.98047 1.5859 2.8203 2.4492 4.793 2.4492 1.1055 0 2.2539-0.27344 3.3086-0.84375 1.5664-0.84766 2.707-2.2266 3.1211-3.7812 0.11719-0.43359 0.15234-0.87109 0.14844-1.3008 0.003906-0.039062 0.023437-0.070312 0.023437-0.10937v-17.043l2.1836 1.4531c1.5078 1.1328 2.1211 2.7266 2.1211 5.5039 0 0.55078 0.44922 1 1 1 0.55078 0 1-0.44922 1-1 0-2.4258-0.34766-5.1719-2.9688-7.1367zm-5.4414 18.121c-0.27344 1.0273-1.0547 1.9531-2.1406 2.5391-2.0234 1.0938-4.4688 0.69141-5.4492-0.89844-0.5-0.8125-0.43359-1.6289-0.28906-2.168 0.27344-1.0273 1.0547-1.9531 2.1406-2.5391 0.76953-0.41406 1.6016-0.61328 2.3867-0.61328 1.2812 0 2.4531 0.52734 3.0625 1.5117 0.5 0.8125 0.43359 1.6289 0.28906 2.168z"/>
</svg>